<!--?xml version="1.0" encoding="utf-8"?-->
<!-- Generator: Adobe Illustrator 19.1.1, SVG Export Plug-In . SVG Version: 6.00 Build 0)  -->
<svg version="1.1" id="_x31_0" xmlns="http://www.w3.org/2000/svg" xmlns:xlink="http://www.w3.org/1999/xlink" x="0px" y="0px" viewBox="0 0 512 512" style="width: 512px; height: 512px; opacity: 1;" xml:space="preserve">
<style type="text/css">
	.st0{fill:#374149;}
</style>
<g>
	<path class="st0" d="M466.301,477.687c25.207,0,45.699-20.489,45.699-45.742v-98.859v-22.199l-6.832-13.75l-48.844-98.187H438.95
		l-10.938-0.102l28.894-33.914c4.812-5.617,4.179-14.109-1.481-18.961L329.11,37.538c-2.695-2.289-6.199-3.457-9.797-3.187
		L119.484,49.089c-3.461,0.222-6.652,1.797-8.988,4.359l-76.121,83.847c-4.809,5.305-4.672,13.438,0.316,18.516l24.875,25.351
		l17.297,17.786H55.676L6.832,297.136L0,310.886v22.199v98.859c0,25.254,20.488,45.742,45.699,45.742H466.301z M62.863,146.015
		l59.454-65.469l27.812,50.054l2.203,3.957l7.551-3.507l-1.574-4.223l-15.359-40.77l-4.231-11.359l144.383-10.652l24.84-1.809
		l-6.734,65.762l-0.454,4.492l8.36,1.348l0.988-4.406l9.09-40.707l4.59-20.214l103.918,89.187l-35.183,41.25l-30.649,35.949
		l-8.402,9.844c-1.707,2.066-2.828,4.582-3.145,7.187c-0.046,0.539-0.09,1.035-0.09,1.574v14.738H157.008v-16.313v-4.402
		c0-3.55-1.394-6.918-3.863-9.437l-3.149-3.192l-35.23-35.949L62.863,146.015z M77.918,234.897h34.375l11.188,11.422l5.758,6
		c-3.062,0.687-5.821,2.238-7.957,4.418c-2.965,2.969-4.809,7.054-4.809,11.504c0,8.988,7.324,16.313,16.312,16.313h246.43
		c4.492,0,8.538-1.844,11.503-4.766c2.965-2.965,4.809-7.051,4.809-11.547c0-7.016-4.574-13.019-10.832-15.324
		c-0.699-0.278-1.414-0.531-2.16-0.723l14.742-17.297h36.758l26.805,48.332l13.054,23.703H178.726l-140.714-0.078L77.918,234.897z
		 M38.203,411.874v-72.07h53.285l38.871,0.118l-85.046,79.094C41.379,419.015,38.203,415.804,38.203,411.874z" style="fill: rgb(75, 75, 75);"></path>
	<polygon class="st0" points="219.691,198.949 224.859,230.273 225.578,234.722 234.282,232.671 234.77,232.561 234.77,232.554 
		234.926,232.519 233.621,228.202 224.453,198.949 223.961,197.331 223.285,195.175 219.195,196.121 219.602,198.366 	" style="fill: rgb(75, 75, 75);"></polygon>
	<polygon class="st0" points="290.242,234.722 290.961,230.273 296.129,198.949 296.218,198.366 296.621,196.121 292.531,195.175 
		291.859,197.331 291.363,198.949 282.199,228.202 281.008,232.14 280.934,232.362 280.942,232.362 280.894,232.519 	" style="fill: rgb(75, 75, 75);"></polygon>
</g>
</svg>
